<?xml version="1.0" standalone="no"?>
<!DOCTYPE svg PUBLIC "-//W3C//DTD SVG 20010904//EN"
 "http://www.w3.org/TR/2001/REC-SVG-20010904/DTD/svg10.dtd">
<svg version="1.0" xmlns="http://www.w3.org/2000/svg"
 width="1667.000000pt" height="1667.000000pt" viewBox="0 0 1667.000000 1667.000000"
 preserveAspectRatio="xMidYMid meet">

<g transform="translate(0.000000,1667.000000) scale(0.100000,-0.100000)"
fill="#000000" stroke="none">
<path d="M7935 16664 c-27 -2 -120 -8 -205 -14 -2240 -155 -4347 -1241 -5806
-2992 -1039 -1248 -1693 -2777 -1873 -4388 -40 -355 -46 -477 -46 -945 1 -480
9 -638 56 -1015 278 -2250 1463 -4284 3293 -5655 1159 -867 2521 -1417 3956
-1594 385 -48 523 -55 1025 -55 501 0 643 7 1020 54 2108 263 4013 1305 5385
2945 1023 1223 1671 2718 1870 4310 47 377 54 519 54 1020 0 503 -7 642 -55
1025 -212 1704 -939 3287 -2098 4569 -616 682 -1399 1298 -2207 1736 -1018
552 -2099 874 -3289 981 -168 15 -943 28 -1080 18z m1060 -1118 c94 -9 262
-30 375 -46 1813 -260 3465 -1207 4619 -2650 808 -1010 1329 -2208 1511 -3480
57 -397 65 -522 65 -1035 0 -513 -8 -638 -65 -1035 -260 -1813 -1207 -3465
-2650 -4619 -1010 -808 -2208 -1329 -3480 -1511 -397 -57 -522 -65 -1035 -65
-513 0 -638 8 -1035 65 -1821 261 -3480 1217 -4636 2670 -796 1001 -1315 2203
-1494 3460 -57 405 -65 523 -65 1035 0 512 8 630 65 1035 259 1817 1217 3480
2670 4636 819 651 1793 1127 2800 1368 410 98 773 152 1275 190 28 2 244 2
480 1 308 -2 478 -7 600 -19z"/>
<path d="M6846 12235 c-252 -69 -426 -320 -402 -577 7 -75 38 -170 81 -244 18
-33 517 -539 1541 -1564 l1514 -1515 -1518 -1520 c-1628 -1630 -1547 -1544
-1598 -1695 -26 -76 -26 -234 0 -310 45 -133 112 -225 214 -294 96 -66 166
-88 289 -94 123 -5 221 20 317 81 44 28 552 530 1792 1770 1858 1859 1759
1755 1810 1907 26 76 26 234 0 310 -51 152 48 48 -1810 1906 -1038 1039 -1753
1746 -1786 1768 -85 56 -192 86 -303 85 -51 0 -114 -7 -141 -14z"/>
</g>
</svg>
